<?xml version="1.0" encoding="UTF-8"?>
<svg xmlns="http://www.w3.org/2000/svg" xmlns:xlink="http://www.w3.org/1999/xlink" width="30px" height="30px" viewBox="0 0 336 384" version="1.1">
<g id="surface1">
<path style=" stroke:none;fill-rule:nonzero;fill:#ffffff;fill-opacity:1;" d="M 145.800781 158.773438 C 127.429688 171.054688 122.492188 195.90625 134.773438 214.273438 C 147.054688 232.644531 171.90625 237.582031 190.273438 225.300781 C 208.644531 213.019531 213.582031 188.171875 201.300781 169.800781 C 189.019531 151.429688 164.171875 146.492188 145.800781 158.773438 Z M 252.523438 107.476562 C 248.625 103.574219 243.898438 100.5 238.726562 98.476562 C 225.148438 93.148438 195.523438 93.375 176.398438 93.601562 C 173.324219 93.601562 170.476562 93.675781 168 93.675781 C 165.523438 93.675781 162.601562 93.675781 159.449219 93.601562 C 140.324219 93.375 110.851562 93.074219 97.273438 98.476562 C 92.101562 100.5 87.449219 103.574219 83.476562 107.476562 C 79.5 111.375 76.5 116.101562 74.476562 121.273438 C 69.148438 134.851562 69.449219 164.550781 69.601562 183.675781 C 69.601562 186.75 69.675781 189.601562 69.675781 192 C 69.675781 194.398438 69.675781 197.25 69.601562 200.324219 C 69.449219 219.449219 69.148438 249.148438 74.476562 262.726562 C 76.5 267.898438 79.574219 272.550781 83.476562 276.523438 C 87.375 280.5 92.101562 283.5 97.273438 285.523438 C 110.851562 290.851562 140.476562 290.625 159.601562 290.398438 C 162.675781 290.398438 165.523438 290.324219 168 290.324219 C 170.476562 290.324219 173.398438 290.324219 176.550781 290.398438 C 195.675781 290.625 225.148438 290.925781 238.726562 285.523438 C 243.898438 283.5 248.550781 280.425781 252.523438 276.523438 C 256.5 272.625 259.5 267.898438 261.523438 262.726562 C 266.925781 249.226562 266.625 219.675781 266.398438 200.476562 C 266.398438 197.324219 266.324219 194.398438 266.324219 191.925781 C 266.324219 189.449219 266.324219 186.601562 266.398438 183.375 C 266.625 164.25 266.925781 134.699219 261.523438 121.125 C 259.5 115.949219 256.425781 111.300781 252.523438 107.324219 Z M 202.199219 140.851562 C 230.449219 159.738281 238.039062 197.949219 219.148438 226.199219 C 200.261719 254.449219 162.050781 262.039062 133.800781 243.148438 C 105.550781 224.28125 97.945312 186.085938 116.8125 157.835938 C 135.679688 129.589844 173.875 121.984375 202.125 140.851562 Z M 224.101562 139.875 C 221.773438 138.300781 219.898438 136.050781 218.773438 133.425781 C 217.648438 130.800781 217.425781 127.949219 217.949219 125.101562 C 218.476562 122.25 219.898438 119.773438 221.851562 117.75 C 223.800781 115.726562 226.425781 114.375 229.199219 113.851562 C 231.976562 113.324219 234.898438 113.550781 237.523438 114.675781 C 240.148438 115.800781 242.398438 117.601562 243.976562 119.925781 C 245.550781 122.25 246.375 125.023438 246.375 127.875 C 246.375 129.75 246 131.625 245.324219 133.351562 C 244.648438 135.074219 243.523438 136.648438 242.25 138 C 240.976562 139.351562 239.324219 140.398438 237.601562 141.148438 C 235.875 141.898438 234 142.273438 232.125 142.273438 C 229.273438 142.273438 226.5 141.449219 224.175781 139.875 Z M 336 72 C 336 45.523438 314.476562 24 288 24 L 48 24 C 21.523438 24 0 45.523438 0 72 L 0 312 C 0 338.476562 21.523438 360 48 360 L 288 360 C 314.476562 360 336 338.476562 336 312 Z M 267.75 291.75 C 253.726562 305.773438 236.699219 310.199219 217.5 311.175781 C 197.699219 312.300781 138.300781 312.300781 118.5 311.175781 C 99.300781 310.199219 82.273438 305.773438 68.25 291.75 C 54.226562 277.726562 49.800781 260.699219 48.898438 241.5 C 47.773438 221.699219 47.773438 162.300781 48.898438 142.5 C 49.875 123.300781 54.226562 106.273438 68.25 92.25 C 82.273438 78.226562 99.375 73.800781 118.5 72.898438 C 138.300781 71.773438 197.699219 71.773438 217.5 72.898438 C 236.699219 73.875 253.726562 78.226562 267.75 92.25 C 281.773438 106.273438 286.199219 123.300781 287.101562 142.5 C 288.226562 162.226562 288.226562 221.550781 287.101562 241.425781 C 286.125 260.625 281.773438 277.648438 267.75 291.675781 Z M 267.75 291.75 "/>
</g>
</svg>
